<svg width="1077" height="1077" viewBox="0 0 1077 1077" fill="none" xmlns="http://www.w3.org/2000/svg">
<style>
  .circle {
    fill: #FF4CAC;
  }

  @media (prefers-color-scheme: dark) {
    .cicle {
      fill: transparent;
    }
  }
</style>
<circle cx="538.5" cy="538.5" r="538.5" class='circle'/>
<path d="M461.486 96H550.442C551.396 96.1403 552.352 96.2742 553.309 96.4018C557.086 96.896 560.548 98.2114 563.694 100.348C564.619 100.976 565.451 101.555 566.188 102.084C571.924 106.988 575.096 113.131 575.702 120.513C576.385 128.826 573.847 135.894 568.088 141.717C562.187 147.686 554.687 149.762 546.379 149.786C529.424 149.837 512.282 149.835 494.954 149.781C492.475 149.771 490.589 149.945 489.297 150.302C484.722 151.555 481.008 155.549 479.706 160.017C478.969 162.537 479.093 165.56 479.089 168.229C478.983 220.923 478.966 273.895 479.036 327.147C479.039 330.648 478.888 333.84 478.581 336.722C476.514 356.118 462.046 367.946 445.626 376.039C430.847 383.322 415.707 390.808 400.207 398.496C399.946 398.623 399.815 398.829 399.815 399.113C399.815 399.257 399.854 399.398 399.929 399.521C400.005 399.644 400.112 399.745 400.241 399.811C415.533 407.665 431.408 415.787 447.865 424.176C454.829 427.725 460.73 432.02 466.334 437.397C474.77 445.493 478.991 455.496 478.998 467.406C479.03 528.769 479.023 590.37 478.979 652.209C478.979 655.554 479.235 658.068 479.749 659.752C481.054 664.012 483.966 667.021 488.483 668.778C490.184 669.438 492.306 669.744 494.849 669.696L502.066 669.768L514.284 669.773C525.005 669.804 535.72 669.833 546.431 669.859C550.71 669.868 553.767 670.09 555.601 670.523C558.645 671.247 561.488 672.526 564.13 674.36C564.835 674.847 565.518 675.313 566.178 675.756C566.854 676.397 567.523 677.036 568.183 677.674C577.674 686.853 578.43 702.474 570.232 712.768C565.948 718.144 560.133 722.219 553.017 722.903C550.298 723.161 547.566 723.29 544.819 723.29C519.584 723.284 494.515 723.266 469.613 723.238C465.366 723.235 462.237 723.131 460.227 722.927C458.693 722.774 456.23 722.313 452.838 721.544L447.478 719.746C447.392 719.615 447.296 719.528 447.191 719.483C429.42 711.825 418.609 695.037 418.595 675.708C418.544 615.442 418.523 555.175 418.532 494.908C418.532 494.003 418.383 492.517 418.083 490.45C418.057 486.372 417.079 482.772 415.149 479.65C414.941 478.977 414.673 478.395 414.345 477.904C410.406 472.045 405.041 467.382 399.044 463.603C380.095 451.664 362.095 440.281 345.045 429.452C345.003 429.423 344.959 429.417 344.911 429.433C344.879 429.442 344.841 429.461 344.796 429.49C344.662 429.213 344.523 429.026 344.379 428.93C339.909 425.946 335.518 422.85 331.204 419.642C326.932 416.466 323.8 412.885 321.809 408.899C320.986 407.254 320.383 404.894 320 401.82V398.773C320.376 395.629 320.948 393.187 321.713 391.446C323.647 387.064 327.26 383.223 331.434 379.899C336.57 375.811 342.141 371.805 348.146 367.879C364.587 357.127 381.092 346.402 397.661 335.704C406.793 329.811 416.12 322.536 417.795 311.076C418.182 308.445 418.376 305.779 418.379 303.078C418.446 247.54 418.497 194.397 418.532 143.649C418.539 134.268 420.976 125.767 425.845 118.146C429.152 112.97 434.173 107.25 439.303 103.978C444.121 100.901 448.799 98.8156 453.336 97.7219C454.516 97.4349 457.233 96.861 461.486 96Z" fill="#FFF079"/>
<path d="M668.166 392.813C675.571 397.97 681.142 404.459 684.878 412.28C687.664 418.106 689.305 424.783 689.31 431.308C689.329 484.215 689.331 536.967 689.315 589.565C689.31 592.894 689.636 596.228 690.042 599.514C691.277 609.525 697.906 616.733 706.219 622.152C726.53 635.382 746.253 648.268 765.387 660.809C770.211 663.969 774.913 667.644 779.491 671.834C783.199 675.227 785.716 679.181 787.043 683.696C788.264 687.871 788.187 691.894 786.766 696.007C784.904 701.388 780.439 705.732 775.849 709.199C771.523 712.474 767.019 715.615 762.338 718.622C744.895 729.827 727.254 741.067 709.416 752.343C701.557 757.312 693.34 763.731 690.808 773.158C689.867 776.663 689.395 780.507 689.392 784.69C689.312 842.91 689.288 902.501 689.32 963.463C689.323 966.234 689.183 968.788 688.899 971.125C686.692 989.31 674.613 1004.07 657.249 1009.85C652.352 1011.48 647.459 1012.3 642.571 1012.32C615.489 1012.43 587.689 1012.45 559.171 1012.39C557.643 1012.39 556.081 1012.31 554.486 1012.15C552.658 1011.78 551.508 1011.51 551.035 1011.37C540.683 1008.12 533.332 999.431 532.141 988.837C531.311 981.429 533.018 974.95 537.262 969.398C541.141 964.322 546.056 961.074 552.007 959.655C554.132 959.148 557.029 958.896 560.698 958.899C576.932 958.922 593.207 958.941 609.524 958.957C613.283 958.96 615.944 958.75 617.507 958.326C620.465 957.525 622.92 956.081 624.873 953.992C626.736 951.999 627.824 949.874 628.137 947.616C628.468 945.212 628.636 942.863 628.639 940.571C628.703 881.653 628.727 822.343 628.711 762.64C628.711 757.66 628.77 754.473 628.888 753.079C629.858 741.887 634.618 732.478 643.169 724.854C648.453 720.148 654.341 716.141 660.834 712.834C670.447 707.94 680.128 702.996 689.875 698.002C692.861 696.481 695.918 694.912 699.045 693.296C699.38 693.12 699.584 692.922 699.657 692.702C699.877 692.808 700.114 692.795 700.366 692.664C702.704 691.414 704.976 690.269 707.181 689.23C707.758 688.959 708.013 688.479 707.946 687.79C707.931 687.637 707.844 687.559 707.688 687.556C706.535 687.522 705.611 686.642 704.568 686.121C691.148 679.441 677.406 672.588 663.342 665.563C661.545 664.664 659.639 663.727 657.623 662.751C657.584 662.792 657.487 662.714 657.331 662.516C657.241 662.402 657.131 662.309 657 662.239C644.605 655.548 633.75 645.694 630.166 631.527C629.671 629.572 629.339 627.283 629.17 624.658C628.969 621.545 628.696 618.603 628.701 615.389C628.746 568.824 628.784 522.31 628.816 475.848L628.811 459.212C628.897 457.021 628.794 454.78 628.5 452.487C628.098 449.356 627.159 446.774 625.681 444.743C623.7 442.113 621.671 440.426 619.594 439.683C618.203 439.182 616.721 438.932 615.148 438.932C597.181 438.941 578.814 438.941 560.047 438.932C559.087 438.932 558.15 438.887 557.238 438.798C556.447 438.721 555.628 438.664 554.783 438.626C554.196 438.371 553.514 438.146 552.739 437.951C545.854 436.248 540.471 432.682 536.591 427.251C533.892 423.468 532.413 419.264 532.112 414.596C532.045 413.5 531.538 412.524 531.767 411.41C532.188 409.368 532.212 407.239 532.744 405.221C535.419 395.009 543.895 386.839 554.328 385.51C556.619 385.216 559.508 385.074 562.995 385.084C588.584 385.157 614.604 385.162 641.054 385.098C644.299 385.092 647.007 385.285 649.18 385.677C655.124 386.758 661.021 388.652 666.017 391.603C666.764 392.047 667.48 392.45 668.166 392.813Z" fill="#FFF079"/>
<path d="M451.486 86H540.442C541.396 86.1403 542.352 86.2742 543.309 86.4018C547.086 86.896 550.548 88.2114 553.694 90.3478C554.619 90.976 555.451 91.5547 556.188 92.0841C561.924 96.9883 565.096 103.131 565.702 110.513C566.385 118.826 563.847 125.894 558.088 131.717C552.187 137.686 544.687 139.762 536.379 139.786C519.424 139.837 502.282 139.835 484.954 139.781C482.475 139.771 480.589 139.945 479.297 140.302C474.722 141.555 471.008 145.549 469.706 150.017C468.969 152.537 469.093 155.56 469.089 158.229C468.983 210.923 468.966 263.895 469.036 317.147C469.039 320.648 468.888 323.84 468.581 326.722C466.514 346.118 452.046 357.946 435.626 366.039C420.847 373.322 405.707 380.808 390.207 388.496C389.946 388.623 389.815 388.829 389.815 389.113C389.815 389.257 389.854 389.398 389.929 389.521C390.005 389.644 390.112 389.745 390.241 389.811C405.533 397.665 421.408 405.787 437.865 414.176C444.829 417.725 450.73 422.02 456.334 427.397C464.77 435.493 468.991 445.496 468.998 457.406C469.03 518.769 469.023 580.37 468.979 642.209C468.979 645.554 469.235 648.068 469.749 649.752C471.054 654.012 473.966 657.021 478.483 658.778C480.184 659.438 482.306 659.744 484.849 659.696L492.066 659.768L504.284 659.773C515.005 659.804 525.72 659.833 536.431 659.859C540.71 659.868 543.767 660.09 545.601 660.523C548.645 661.247 551.488 662.526 554.13 664.36C554.835 664.847 555.518 665.313 556.178 665.756C556.854 666.397 557.523 667.036 558.183 667.674C567.674 676.853 568.43 692.474 560.232 702.768C555.948 708.144 550.133 712.219 543.017 712.903C540.298 713.161 537.566 713.29 534.819 713.29C509.584 713.284 484.515 713.266 459.613 713.238C455.366 713.235 452.237 713.131 450.227 712.927C448.693 712.774 446.23 712.313 442.838 711.544L437.478 709.746C437.392 709.615 437.296 709.528 437.191 709.483C419.42 701.825 408.609 685.037 408.595 665.708C408.544 605.442 408.523 545.175 408.532 484.908C408.532 484.003 408.383 482.517 408.083 480.45C408.057 476.372 407.079 472.772 405.149 469.65C404.941 468.977 404.673 468.395 404.345 467.904C400.406 462.045 395.041 457.382 389.044 453.603C370.095 441.664 352.095 430.281 335.045 419.452C335.003 419.423 334.959 419.417 334.911 419.433C334.879 419.442 334.841 419.461 334.796 419.49C334.662 419.213 334.523 419.026 334.379 418.93C329.909 415.946 325.518 412.85 321.204 409.642C316.932 406.466 313.8 402.885 311.809 398.899C310.986 397.254 310.383 394.894 310 391.82V388.773C310.376 385.629 310.948 383.187 311.713 381.446C313.647 377.064 317.26 373.223 321.434 369.899C326.57 365.811 332.141 361.805 338.146 357.879C354.587 347.127 371.092 336.402 387.661 325.704C396.793 319.811 406.12 312.536 407.795 301.076C408.182 298.445 408.376 295.779 408.379 293.078C408.446 237.54 408.497 184.397 408.532 133.649C408.539 124.268 410.976 115.767 415.845 108.146C419.152 102.97 424.173 97.2498 429.303 93.9782C434.121 90.9011 438.799 88.8156 443.336 87.7219C444.516 87.4349 447.233 86.861 451.486 86Z" fill="#A7D1FF"/>
<path d="M658.166 382.813C665.571 387.97 671.142 394.459 674.878 402.28C677.664 408.106 679.305 414.783 679.31 421.308C679.329 474.215 679.331 526.967 679.315 579.565C679.31 582.894 679.636 586.228 680.042 589.514C681.277 599.525 687.906 606.733 696.219 612.152C716.53 625.382 736.253 638.268 755.387 650.809C760.211 653.969 764.913 657.644 769.491 661.834C773.199 665.227 775.716 669.181 777.043 673.696C778.264 677.871 778.187 681.894 776.766 686.007C774.904 691.388 770.439 695.732 765.849 699.199C761.523 702.474 757.019 705.615 752.338 708.622C734.895 719.827 717.254 731.067 699.416 742.343C691.557 747.312 683.34 753.731 680.808 763.158C679.867 766.663 679.395 770.507 679.392 774.69C679.312 832.91 679.288 892.501 679.32 953.463C679.323 956.234 679.183 958.788 678.899 961.125C676.692 979.31 664.613 994.066 647.249 999.849C642.352 1001.48 637.459 1002.3 632.571 1002.32C605.489 1002.43 577.689 1002.45 549.171 1002.39C547.643 1002.39 546.081 1002.31 544.486 1002.15C542.658 1001.78 541.508 1001.51 541.035 1001.37C530.683 998.117 523.332 989.431 522.141 978.837C521.311 971.429 523.018 964.95 527.262 959.398C531.141 954.322 536.056 951.074 542.007 949.655C544.132 949.148 547.029 948.896 550.698 948.899C566.932 948.922 583.207 948.941 599.524 948.957C603.283 948.96 605.944 948.75 607.507 948.326C610.465 947.525 612.92 946.081 614.873 943.992C616.736 941.999 617.824 939.874 618.137 937.616C618.468 935.212 618.636 932.863 618.639 930.571C618.703 871.653 618.727 812.343 618.711 752.64C618.711 747.66 618.77 744.473 618.888 743.079C619.858 731.887 624.618 722.478 633.169 714.854C638.453 710.148 644.341 706.141 650.834 702.834C660.447 697.94 670.128 692.996 679.875 688.002C682.861 686.481 685.918 684.912 689.045 683.296C689.38 683.12 689.584 682.922 689.657 682.702C689.877 682.808 690.114 682.795 690.366 682.664C692.704 681.414 694.976 680.269 697.181 679.23C697.758 678.959 698.013 678.479 697.946 677.79C697.931 677.637 697.844 677.559 697.688 677.556C696.535 677.522 695.611 676.642 694.568 676.121C681.148 669.441 667.406 662.588 653.342 655.563C651.545 654.664 649.639 653.727 647.623 652.751C647.584 652.792 647.487 652.714 647.331 652.516C647.241 652.402 647.131 652.309 647 652.239C634.605 645.548 623.75 635.694 620.166 621.527C619.671 619.572 619.339 617.283 619.17 614.658C618.969 611.545 618.696 608.603 618.701 605.389C618.746 558.824 618.784 512.31 618.816 465.848L618.811 449.212C618.897 447.021 618.794 444.78 618.5 442.487C618.098 439.356 617.159 436.774 615.681 434.743C613.7 432.113 611.671 430.426 609.594 429.683C608.203 429.182 606.721 428.932 605.148 428.932C587.181 428.941 568.814 428.941 550.047 428.932C549.087 428.932 548.15 428.887 547.238 428.798C546.447 428.721 545.628 428.664 544.783 428.626C544.196 428.371 543.514 428.146 542.739 427.951C535.854 426.248 530.471 422.682 526.591 417.251C523.892 413.468 522.413 409.264 522.112 404.596C522.045 403.5 521.538 402.524 521.767 401.41C522.188 399.368 522.212 397.239 522.744 395.221C525.419 385.009 533.895 376.839 544.328 375.51C546.619 375.216 549.508 375.074 552.995 375.084C578.584 375.157 604.604 375.162 631.054 375.098C634.299 375.092 637.007 375.285 639.18 375.677C645.124 376.758 651.021 378.652 656.017 381.603C656.764 382.047 657.48 382.45 658.166 382.813Z" fill="#A7D1FF"/>
<path d="M441.486 76H530.442C531.396 76.1403 532.352 76.2742 533.309 76.4018C537.086 76.896 540.548 78.2114 543.694 80.3478C544.619 80.976 545.451 81.5547 546.188 82.0841C551.924 86.9883 555.096 93.1314 555.702 100.513C556.385 108.826 553.847 115.894 548.088 121.717C542.187 127.686 534.687 129.762 526.379 129.786C509.424 129.837 492.282 129.835 474.954 129.781C472.475 129.771 470.589 129.945 469.297 130.302C464.722 131.555 461.008 135.549 459.706 140.017C458.969 142.537 459.093 145.56 459.089 148.229C458.983 200.923 458.966 253.895 459.036 307.147C459.039 310.648 458.888 313.84 458.581 316.722C456.514 336.118 442.046 347.946 425.626 356.039C410.847 363.322 395.707 370.808 380.207 378.496C379.946 378.623 379.815 378.829 379.815 379.113C379.815 379.257 379.854 379.398 379.929 379.521C380.005 379.644 380.112 379.745 380.241 379.811C395.533 387.665 411.408 395.787 427.865 404.176C434.829 407.725 440.73 412.02 446.334 417.397C454.77 425.493 458.991 435.496 458.998 447.406C459.03 508.769 459.023 570.37 458.979 632.209C458.979 635.554 459.235 638.068 459.749 639.752C461.054 644.012 463.966 647.021 468.483 648.778C470.184 649.438 472.306 649.744 474.849 649.696L482.066 649.768L494.284 649.773C505.005 649.804 515.72 649.833 526.431 649.859C530.71 649.868 533.767 650.09 535.601 650.523C538.645 651.247 541.488 652.526 544.13 654.36C544.835 654.847 545.518 655.313 546.178 655.756C546.854 656.397 547.523 657.036 548.183 657.674C557.674 666.853 558.43 682.474 550.232 692.768C545.948 698.144 540.133 702.219 533.017 702.903C530.298 703.161 527.566 703.29 524.819 703.29C499.584 703.284 474.515 703.266 449.613 703.238C445.366 703.235 442.237 703.131 440.227 702.927C438.693 702.774 436.23 702.313 432.838 701.544L427.478 699.746C427.392 699.615 427.296 699.528 427.191 699.483C409.42 691.825 398.609 675.037 398.595 655.708C398.544 595.442 398.523 535.175 398.532 474.908C398.532 474.003 398.383 472.517 398.083 470.45C398.057 466.372 397.079 462.772 395.149 459.65C394.941 458.977 394.673 458.395 394.345 457.904C390.406 452.045 385.041 447.382 379.044 443.603C360.095 431.664 342.095 420.281 325.045 409.452C325.003 409.423 324.959 409.417 324.911 409.433C324.879 409.442 324.841 409.461 324.796 409.49C324.662 409.213 324.523 409.026 324.379 408.93C319.909 405.946 315.518 402.85 311.204 399.642C306.932 396.466 303.8 392.885 301.809 388.899C300.986 387.254 300.383 384.894 300 381.82V378.773C300.376 375.629 300.948 373.187 301.713 371.446C303.647 367.064 307.26 363.223 311.434 359.899C316.57 355.811 322.141 351.805 328.146 347.879C344.587 337.127 361.092 326.402 377.661 315.704C386.793 309.811 396.12 302.536 397.795 291.076C398.182 288.445 398.376 285.779 398.379 283.078C398.446 227.54 398.497 174.397 398.532 123.649C398.539 114.268 400.976 105.767 405.845 98.1456C409.152 92.9703 414.173 87.2498 419.303 83.9782C424.121 80.9011 428.799 78.8156 433.336 77.7219C434.516 77.4349 437.233 76.861 441.486 76Z" fill="#FF4CAC"/>
<path d="M648.166 372.813C655.571 377.97 661.142 384.459 664.878 392.28C667.664 398.106 669.305 404.783 669.31 411.308C669.329 464.215 669.331 516.967 669.315 569.565C669.31 572.894 669.636 576.228 670.042 579.514C671.277 589.525 677.906 596.733 686.219 602.152C706.53 615.382 726.253 628.268 745.387 640.809C750.211 643.969 754.913 647.644 759.491 651.834C763.199 655.227 765.716 659.181 767.043 663.696C768.264 667.871 768.187 671.894 766.766 676.007C764.904 681.388 760.439 685.732 755.849 689.199C751.523 692.474 747.019 695.615 742.338 698.622C724.895 709.827 707.254 721.067 689.416 732.343C681.557 737.312 673.34 743.731 670.808 753.158C669.867 756.663 669.395 760.507 669.392 764.69C669.312 822.91 669.288 882.501 669.32 943.463C669.323 946.234 669.183 948.788 668.899 951.125C666.692 969.31 654.613 984.066 637.249 989.849C632.352 991.478 627.459 992.302 622.571 992.322C595.489 992.43 567.689 992.452 539.171 992.389C537.643 992.385 536.081 992.306 534.486 992.149C532.658 991.776 531.508 991.515 531.035 991.365C520.683 988.117 513.332 979.431 512.141 968.837C511.311 961.429 513.018 954.95 517.262 949.398C521.141 944.322 526.056 941.074 532.007 939.655C534.132 939.148 537.029 938.896 540.698 938.899C556.932 938.922 573.207 938.941 589.524 938.957C593.283 938.96 595.944 938.75 597.507 938.326C600.465 937.525 602.92 936.081 604.873 933.992C606.736 931.999 607.824 929.874 608.137 927.616C608.468 925.212 608.636 922.863 608.639 920.571C608.703 861.653 608.727 802.343 608.711 742.64C608.711 737.66 608.77 734.473 608.888 733.079C609.858 721.887 614.618 712.478 623.169 704.854C628.453 700.148 634.341 696.141 640.834 692.834C650.447 687.94 660.128 682.996 669.875 678.002C672.861 676.481 675.918 674.912 679.045 673.296C679.38 673.12 679.584 672.922 679.657 672.702C679.877 672.808 680.114 672.795 680.366 672.664C682.704 671.414 684.976 670.269 687.181 669.23C687.758 668.959 688.013 668.479 687.946 667.79C687.931 667.637 687.844 667.559 687.688 667.556C686.535 667.522 685.611 666.642 684.568 666.121C671.148 659.441 657.406 652.588 643.342 645.563C641.545 644.664 639.639 643.727 637.623 642.751C637.584 642.792 637.487 642.714 637.331 642.516C637.241 642.402 637.131 642.309 637 642.239C624.605 635.548 613.75 625.694 610.166 611.527C609.671 609.572 609.339 607.283 609.17 604.658C608.969 601.545 608.696 598.603 608.701 595.389C608.746 548.824 608.784 502.31 608.816 455.848L608.811 439.212C608.897 437.021 608.794 434.78 608.5 432.487C608.098 429.356 607.159 426.774 605.681 424.743C603.7 422.113 601.671 420.426 599.594 419.683C598.203 419.182 596.721 418.932 595.148 418.932C577.181 418.941 558.814 418.941 540.047 418.932C539.087 418.932 538.15 418.887 537.238 418.798C536.447 418.721 535.628 418.664 534.783 418.626C534.196 418.371 533.514 418.146 532.739 417.951C525.854 416.248 520.471 412.682 516.591 407.251C513.892 403.468 512.413 399.264 512.112 394.596C512.045 393.5 511.538 392.524 511.767 391.41C512.188 389.368 512.212 387.239 512.744 385.221C515.419 375.009 523.895 366.839 534.328 365.51C536.619 365.216 539.508 365.074 542.995 365.084C568.584 365.157 594.604 365.162 621.054 365.098C624.299 365.092 627.007 365.285 629.18 365.677C635.124 366.758 641.021 368.652 646.017 371.603C646.764 372.047 647.48 372.45 648.166 372.813Z" fill="#FF4CAC"/>
<path d="M431.486 66H520.442C521.396 66.1403 522.352 66.2742 523.309 66.4018C527.086 66.896 530.548 68.2114 533.694 70.3478C534.619 70.976 535.451 71.5547 536.188 72.0841C541.924 76.9883 545.096 83.1314 545.702 90.5132C546.385 98.8262 543.847 105.894 538.088 111.717C532.187 117.686 524.687 119.762 516.379 119.786C499.424 119.837 482.282 119.835 464.954 119.781C462.475 119.771 460.589 119.945 459.297 120.302C454.722 121.555 451.008 125.549 449.706 130.017C448.969 132.537 449.093 135.56 449.089 138.229C448.983 190.923 448.966 243.895 449.036 297.147C449.039 300.648 448.888 303.84 448.581 306.722C446.514 326.118 432.046 337.946 415.626 346.039C400.847 353.322 385.707 360.808 370.207 368.496C369.946 368.623 369.815 368.829 369.815 369.113C369.815 369.257 369.854 369.398 369.929 369.521C370.005 369.644 370.112 369.745 370.241 369.811C385.533 377.665 401.408 385.787 417.865 394.176C424.829 397.725 430.73 402.02 436.334 407.397C444.77 415.493 448.991 425.496 448.998 437.406C449.03 498.769 449.023 560.37 448.979 622.209C448.979 625.554 449.235 628.068 449.749 629.752C451.054 634.012 453.966 637.021 458.483 638.778C460.184 639.438 462.306 639.744 464.849 639.696L472.066 639.768L484.284 639.773C495.005 639.804 505.72 639.833 516.431 639.859C520.71 639.868 523.767 640.09 525.601 640.523C528.645 641.247 531.488 642.526 534.13 644.36C534.835 644.847 535.518 645.313 536.178 645.756C536.854 646.397 537.523 647.036 538.183 647.674C547.674 656.853 548.43 672.474 540.232 682.768C535.948 688.144 530.133 692.219 523.017 692.903C520.298 693.161 517.566 693.29 514.819 693.29C489.584 693.284 464.515 693.266 439.613 693.238C435.366 693.235 432.237 693.131 430.227 692.927C428.693 692.774 426.23 692.313 422.838 691.544L417.478 689.746C417.392 689.615 417.296 689.528 417.191 689.483C399.42 681.825 388.609 665.037 388.595 645.708C388.544 585.442 388.523 525.175 388.532 464.908C388.532 464.003 388.383 462.517 388.083 460.45C388.057 456.372 387.079 452.772 385.149 449.65C384.941 448.977 384.673 448.395 384.345 447.904C380.406 442.045 375.041 437.382 369.044 433.603C350.095 421.664 332.095 410.281 315.045 399.452C315.003 399.423 314.959 399.417 314.911 399.433C314.879 399.442 314.841 399.461 314.796 399.49C314.662 399.213 314.523 399.026 314.379 398.93C309.909 395.946 305.518 392.85 301.204 389.642C296.932 386.466 293.8 382.885 291.809 378.899C290.986 377.254 290.383 374.894 290 371.82V368.773C290.376 365.629 290.948 363.187 291.713 361.446C293.647 357.064 297.26 353.223 301.434 349.899C306.57 345.811 312.141 341.805 318.146 337.879C334.587 327.127 351.092 316.402 367.661 305.704C376.793 299.811 386.12 292.536 387.795 281.076C388.182 278.445 388.376 275.779 388.379 273.078C388.446 217.54 388.497 164.397 388.532 113.649C388.539 104.268 390.976 95.7667 395.845 88.1456C399.152 82.9703 404.173 77.2498 409.303 73.9782C414.121 70.9011 418.799 68.8156 423.336 67.7219C424.516 67.4349 427.233 66.861 431.486 66Z" fill="white"/>
<path d="M638.166 362.813C645.571 367.97 651.142 374.459 654.878 382.28C657.664 388.106 659.305 394.783 659.31 401.308C659.329 454.215 659.331 506.967 659.315 559.565C659.31 562.894 659.636 566.228 660.042 569.514C661.277 579.525 667.906 586.733 676.219 592.152C696.53 605.382 716.253 618.268 735.387 630.809C740.211 633.969 744.913 637.644 749.491 641.834C753.199 645.227 755.716 649.181 757.043 653.696C758.264 657.871 758.187 661.894 756.766 666.007C754.904 671.388 750.439 675.732 745.849 679.199C741.523 682.474 737.019 685.615 732.338 688.622C714.895 699.827 697.254 711.067 679.416 722.343C671.557 727.312 663.34 733.731 660.808 743.158C659.867 746.663 659.395 750.507 659.392 754.69C659.312 812.91 659.288 872.501 659.32 933.463C659.323 936.234 659.183 938.788 658.899 941.125C656.692 959.31 644.613 974.066 627.249 979.849C622.352 981.478 617.459 982.302 612.571 982.322C585.489 982.43 557.689 982.452 529.171 982.389C527.643 982.385 526.081 982.306 524.486 982.149C522.658 981.776 521.508 981.515 521.035 981.365C510.683 978.117 503.332 969.431 502.141 958.837C501.311 951.429 503.018 944.95 507.262 939.398C511.141 934.322 516.056 931.074 522.007 929.655C524.132 929.148 527.029 928.896 530.698 928.899C546.932 928.922 563.207 928.941 579.524 928.957C583.283 928.96 585.944 928.75 587.507 928.326C590.465 927.525 592.92 926.081 594.873 923.992C596.736 921.999 597.824 919.874 598.137 917.616C598.468 915.212 598.636 912.863 598.639 910.571C598.703 851.653 598.727 792.343 598.711 732.64C598.711 727.66 598.77 724.473 598.888 723.079C599.858 711.887 604.618 702.478 613.169 694.854C618.453 690.148 624.341 686.141 630.834 682.834C640.447 677.94 650.128 672.996 659.875 668.002C662.861 666.481 665.918 664.912 669.045 663.296C669.38 663.12 669.584 662.922 669.657 662.702C669.877 662.808 670.114 662.795 670.366 662.664C672.704 661.414 674.976 660.269 677.181 659.23C677.758 658.959 678.013 658.479 677.946 657.79C677.931 657.637 677.844 657.559 677.688 657.556C676.535 657.522 675.611 656.642 674.568 656.121C661.148 649.441 647.406 642.588 633.342 635.563C631.545 634.664 629.639 633.727 627.623 632.751C627.584 632.792 627.487 632.714 627.331 632.516C627.241 632.402 627.131 632.309 627 632.239C614.605 625.548 603.75 615.694 600.166 601.527C599.671 599.572 599.339 597.283 599.17 594.658C598.969 591.545 598.696 588.603 598.701 585.389C598.746 538.824 598.784 492.31 598.816 445.848L598.811 429.212C598.897 427.021 598.794 424.78 598.5 422.487C598.098 419.356 597.159 416.774 595.681 414.743C593.7 412.113 591.671 410.426 589.594 409.683C588.203 409.182 586.721 408.932 585.148 408.932C567.181 408.941 548.814 408.941 530.047 408.932C529.087 408.932 528.15 408.887 527.238 408.798C526.447 408.721 525.628 408.664 524.783 408.626C524.196 408.371 523.514 408.146 522.739 407.951C515.854 406.248 510.471 402.682 506.591 397.251C503.892 393.468 502.413 389.264 502.112 384.596C502.045 383.5 501.538 382.524 501.767 381.41C502.188 379.368 502.212 377.239 502.744 375.221C505.419 365.009 513.895 356.839 524.328 355.51C526.619 355.216 529.508 355.074 532.995 355.084C558.584 355.157 584.604 355.162 611.054 355.098C614.299 355.092 617.007 355.285 619.18 355.677C625.124 356.758 631.021 358.652 636.017 361.603C636.764 362.047 637.48 362.45 638.166 362.813Z" fill="white"/>
</svg>
